<svg width="138" height="475" fill="none" xmlns="http://www.w3.org/2000/svg"><g clip-path="url(#a)"><path d="M27.6 27.36c-.4 0-.6-.1-1-.3l-6.6-3.7v7c0 .6.4 1 .9 1h13.2c.6 0 .9-.4.9-1v-7l-6.5 3.7c-.4.2-.6.3-.9.3Zm6.5-8H20.9c-.5 0-.9.5-.9 1v.8l7.5 4.2 7.5-4.2v-.8c0-.5-.4-1-.9-1Z" fill="#000"/></g><g clip-path="url(#b)" fill="#000"><path d="M28 50.36h-2v2h2v-2ZM28 54.36h-2v8h2v-8Z"/></g><g clip-path="url(#c)"><path d="M21 93.36h13c-.2-2.6-2.1-4.8-4.7-5.5 1-.6 1.7-1.7 1.7-3 0-1.9-1.6-3.5-3.5-3.5s-3.5 1.6-3.5 3.5c0 1.3.7 2.4 1.7 3-2.6.7-4.5 2.9-4.7 5.5Z" fill="#000"/></g><g clip-path="url(#d)"><path d="M35 119.36h-7v-7h-2v7h-7v2h7v7h2v-7h7v-2Z" fill="#000"/></g><path d="M35 154.36H19v2h16v-2Z" fill="#000"/><g clip-path="url(#e)"><path d="m34.7 196.66-3.1-3.1c.9-1.2 1.4-2.6 1.4-4.2 0-3.9-3.1-7-7-7s-7 3.1-7 7 3.1 7 7 7c1.6 0 3-.5 4.2-1.4l3.1 3.1c.2.2.4.3.7.3.6 0 1-.4 1-1 0-.2-.1-.5-.3-.7Zm-13.7-7.3c0-2.8 2.2-5 5-5s5 2.2 5 5-2.2 5-5 5-5-2.2-5-5Z" fill="#000"/></g><g clip-path="url(#f)"><path d="m34.3 222.36-3.5.2-3.2-4.9c-.1-.2-.4-.3-.6-.3-.2 0-.5.1-.6.3l-3.2 4.9h-3.5c-.4 0-.7.3-.7.7v.2l1.9 6.8c.2.7.7 1.1 1.4 1.1h9.4c.7 0 1.2-.4 1.4-1.1l1.9-6.9v-.2c0-.4-.3-.8-.7-.8Zm-7.3-3.1 2.2 3.2h-4.3l2.1-3.2Z" fill="#000"/></g><g clip-path="url(#g)" fill="#000"><path d="M28 250.36h-2v12h2v-12ZM24 254.36h-2v8h2v-8ZM32 253.36h-2v9h2v-9Z"/></g><g clip-path="url(#h)"><path d="m33 282.36-1-1-4.5 4.5-4.5-4.5-1 1 4.5 4.5-4.5 4.5 1 1 4.5-4.5 4.5 4.5 1-1-4.5-4.5 4.5-4.5Z" fill="#000"/></g><path d="m28.1 318.18 4.7-4.5c.3-.3.3-.8 0-1.1-.3-.3-.8-.3-1.1 0l-4.2 4-4.2-4c-.3-.3-.8-.3-1.1 0-.1.2-.2.4-.2.6 0 .2.1.4.2.5l4.7 4.5c.4.3.8.3 1.2 0Z" fill="#000"/><g clip-path="url(#i)"><path d="m27.5 348.36-5-10h10" fill="#000"/></g><g opacity=".6" clip-path="url(#j)"><path d="M65.6 27.36c-.4 0-.6-.1-1-.3l-6.6-3.7v7c0 .6.4 1 .9 1h13.2c.6 0 .9-.4.9-1v-7l-6.5 3.7c-.4.2-.6.3-.9.3Zm6.5-8H58.9c-.5 0-.9.5-.9 1v.8l7.5 4.2 7.5-4.2v-.8c0-.5-.4-1-.9-1Z" fill="#000"/></g><g opacity=".3" clip-path="url(#k)"><path d="M103.6 27.36c-.4 0-.6-.1-1-.3l-6.6-3.7v7c0 .6.4 1 .9 1h13.2c.6 0 .9-.4.9-1v-7l-6.5 3.7c-.4.2-.6.3-.9.3Zm6.5-8H96.9c-.5 0-.9.5-.9 1v.8l7.5 4.2 7.5-4.2v-.8c0-.5-.4-1-.9-1Z" fill="#000"/></g><g opacity=".6" clip-path="url(#l)" fill="#000"><path d="M66 50.36h-2v2h2v-2ZM66 54.36h-2v8h2v-8Z"/></g><g opacity=".3" clip-path="url(#m)" fill="#000"><path d="M104 50.36h-2v2h2v-2ZM104 54.36h-2v8h2v-8Z"/></g><g opacity=".6" clip-path="url(#n)"><path d="M59 93.36h13c-.2-2.6-2.1-4.8-4.7-5.5 1-.6 1.7-1.7 1.7-3 0-1.9-1.6-3.5-3.5-3.5s-3.5 1.6-3.5 3.5c0 1.3.7 2.4 1.7 3-2.6.7-4.5 2.9-4.7 5.5Z" fill="#000"/></g><g opacity=".3" clip-path="url(#o)"><path d="M97 93.36h13c-.2-2.6-2.1-4.8-4.7-5.5 1-.6 1.7-1.7 1.7-3 0-1.9-1.6-3.5-3.5-3.5s-3.5 1.6-3.5 3.5c0 1.3.7 2.4 1.7 3-2.6.7-4.5 2.9-4.7 5.5Z" fill="#000"/></g><g opacity=".6" clip-path="url(#p)"><path d="M73 119.36h-7v-7h-2v7h-7v2h7v7h2v-7h7v-2Z" fill="#000"/></g><g opacity=".3" clip-path="url(#q)"><path d="M111 119.36h-7v-7h-2v7h-7v2h7v7h2v-7h7v-2Z" fill="#000"/></g><path d="M73 154.36H57v2h16v-2Z" fill="#000" opacity=".6"/><path d="M111 154.36H95v2h16v-2Z" fill="#000" opacity=".3"/><g opacity=".6" clip-path="url(#r)"><path d="m72.7 196.66-3.1-3.1c.9-1.2 1.4-2.6 1.4-4.2 0-3.9-3.1-7-7-7s-7 3.1-7 7 3.1 7 7 7c1.6 0 3-.5 4.2-1.4l3.1 3.1c.2.2.4.3.7.3.6 0 1-.4 1-1 0-.2-.1-.5-.3-.7Zm-13.7-7.3c0-2.8 2.2-5 5-5s5 2.2 5 5-2.2 5-5 5-5-2.2-5-5Z" fill="#000"/></g><g opacity=".3" clip-path="url(#s)"><path d="m110.7 196.66-3.1-3.1c.9-1.2 1.4-2.6 1.4-4.2 0-3.9-3.1-7-7-7s-7 3.1-7 7 3.1 7 7 7c1.6 0 3-.5 4.2-1.4l3.1 3.1c.2.2.4.3.7.3.6 0 1-.4 1-1 0-.2-.1-.5-.3-.7Zm-13.7-7.3c0-2.8 2.2-5 5-5s5 2.2 5 5-2.2 5-5 5-5-2.2-5-5Z" fill="#000"/></g><g opacity=".6" clip-path="url(#t)"><path d="m72.3 222.36-3.5.2-3.2-4.9c-.1-.2-.4-.3-.6-.3-.2 0-.5.1-.6.3l-3.2 4.9h-3.5c-.4 0-.7.3-.7.7v.2l1.9 6.8c.2.7.7 1.1 1.4 1.1h9.4c.7 0 1.2-.4 1.4-1.1l1.9-6.9v-.2c0-.4-.3-.8-.7-.8Zm-7.3-3.1 2.2 3.2h-4.3l2.1-3.2Z" fill="#000"/></g><g opacity=".3" clip-path="url(#u)"><path d="m110.3 222.36-3.5.2-3.2-4.9c-.1-.2-.4-.3-.6-.3-.2 0-.5.1-.6.3l-3.2 4.9h-3.5c-.4 0-.7.3-.7.7v.2l1.9 6.8c.2.7.7 1.1 1.4 1.1h9.4c.7 0 1.2-.4 1.4-1.1l1.9-6.9v-.2c0-.4-.3-.8-.7-.8Zm-7.3-3.1 2.2 3.2h-4.3l2.1-3.2Z" fill="#000"/></g><g opacity=".6" clip-path="url(#v)" fill="#000"><path d="M66 250.36h-2v12h2v-12ZM62 254.36h-2v8h2v-8ZM70 253.36h-2v9h2v-9Z"/></g><g opacity=".3" clip-path="url(#w)" fill="#000"><path d="M104 250.36h-2v12h2v-12ZM100 254.36h-2v8h2v-8ZM108 253.36h-2v9h2v-9Z"/></g><g opacity=".6" clip-path="url(#x)"><path d="m71 282.36-1-1-4.5 4.5-4.5-4.5-1 1 4.5 4.5-4.5 4.5 1 1 4.5-4.5 4.5 4.5 1-1-4.5-4.5 4.5-4.5Z" fill="#000"/></g><g opacity=".3" clip-path="url(#y)"><path d="m109 282.36-1-1-4.5 4.5-4.5-4.5-1 1 4.5 4.5-4.5 4.5 1 1 4.5-4.5 4.5 4.5 1-1-4.5-4.5 4.5-4.5Z" fill="#000"/></g><path d="m66.1 318.18 4.7-4.5c.3-.3.3-.8 0-1.1-.3-.3-.8-.3-1.1 0l-4.2 4-4.2-4c-.3-.3-.8-.3-1.1 0-.1.2-.2.4-.2.6 0 .2.1.4.2.5l4.7 4.5c.4.3.8.3 1.2 0Z" fill="#000" opacity=".6"/><path d="m104.1 318.18 4.7-4.5c.3-.3.3-.8 0-1.1-.3-.3-.8-.3-1.1 0l-4.2 4-4.2-4c-.3-.3-.8-.3-1.1 0-.1.2-.2.4-.2.6 0 .2.1.4.2.5l4.7 4.5c.4.3.8.3 1.2 0Z" fill="#000" opacity=".3"/><g opacity=".6" clip-path="url(#z)"><path d="m65.5 348.36-5-10h10" fill="#000"/></g><g opacity=".3" clip-path="url(#A)"><path d="m103.5 348.36-5-10h10" fill="#000"/></g><g clip-path="url(#B)"><path d="m27.5 362.36 5 10h-10" fill="#000"/></g><g opacity=".6" clip-path="url(#C)"><path d="m65.5 362.36 5 10h-10" fill="#000"/></g><g opacity=".3" clip-path="url(#D)"><path d="m103.5 362.36 5 10h-10" fill="#000"/></g><g clip-path="url(#E)"><g clip-path="url(#F)" fill="#000"><path d="M30 401.36a2 2 0 1 0 0-4 2 2 0 0 0 0 4Z"/><path d="M36.7 392.66c-.9-.9-2-1.3-3.4-1.3h-6.6c-2.8 0-4.7 1.9-4.7 4.7v6.6c0 1.4.4 2.6 1.4 3.4.9.9 2 1.3 3.3 1.3h6.6c1.4 0 2.6-.4 3.4-1.3.8-.9 1.3-2 1.3-3.4v-6.6c0-1.4-.4-2.6-1.3-3.4Zm-6.7 10.8c-2.2 0-4.1-1.8-4.1-4.1s1.9-4.1 4.1-4.1c2.2 0 4.1 1.8 4.1 4.1s-1.9 4.1-4.1 4.1Zm4.6-7.4c-.7 0-1.3-.5-1.3-1.3s.5-1.3 1.3-1.3c.7 0 1.3.6 1.3 1.3 0 .7-.6 1.3-1.3 1.3Z"/></g></g><g clip-path="url(#G)"><g clip-path="url(#H)" fill="#000" opacity=".6"><path d="M68 401.36a2 2 0 1 0 0-4 2 2 0 0 0 0 4Z"/><path d="M74.7 392.66c-.9-.9-2-1.3-3.4-1.3h-6.6c-2.8 0-4.7 1.9-4.7 4.7v6.6c0 1.4.4 2.6 1.4 3.4.9.9 2 1.3 3.3 1.3h6.6c1.4 0 2.6-.4 3.4-1.3.8-.9 1.3-2 1.3-3.4v-6.6c0-1.4-.4-2.6-1.3-3.4Zm-6.7 10.8c-2.2 0-4.1-1.8-4.1-4.1s1.9-4.1 4.1-4.1c2.2 0 4.1 1.8 4.1 4.1s-1.9 4.1-4.1 4.1Zm4.6-7.4c-.7 0-1.3-.5-1.3-1.3s.5-1.3 1.3-1.3c.7 0 1.3.6 1.3 1.3 0 .7-.6 1.3-1.3 1.3Z"/></g></g><g clip-path="url(#I)"><g clip-path="url(#J)" fill="#000" opacity=".3"><path d="M106 401.36a2 2 0 1 0 0-4 2 2 0 0 0 0 4Z"/><path d="M112.7 392.66c-.9-.9-2-1.3-3.4-1.3h-6.6c-2.8 0-4.7 1.9-4.7 4.7v6.6c0 1.4.4 2.6 1.4 3.4.9.9 2 1.3 3.3 1.3h6.6c1.4 0 2.6-.4 3.4-1.3.8-.9 1.3-2 1.3-3.4v-6.6c0-1.4-.4-2.6-1.3-3.4Zm-6.7 10.8c-2.2 0-4.1-1.8-4.1-4.1s1.9-4.1 4.1-4.1c2.2 0 4.1 1.8 4.1 4.1s-1.9 4.1-4.1 4.1Zm4.6-7.4c-.7 0-1.3-.5-1.3-1.3s.5-1.3 1.3-1.3c.7 0 1.3.6 1.3 1.3 0 .7-.6 1.3-1.3 1.3Z"/></g></g><g clip-path="url(#K)"><g clip-path="url(#L)"><path d="M31.5 418.36H34v-3h-3.4c-2.8 0-3.6 1.7-3.6 4.2v1.8h-2v3h2v9h3v-9h3.3l.6-3H30v-1.5c0-.8.3-1.5 1.5-1.5Z" fill="#000"/></g></g><g clip-path="url(#M)"><g clip-path="url(#N)" opacity=".6"><path d="M66.5 418.36H69v-3h-3.4c-2.8 0-3.6 1.7-3.6 4.2v1.8h-2v3h2v9h3v-9h3.3l.6-3H65v-1.5c0-.8.3-1.5 1.5-1.5Z" fill="#000"/></g></g><g clip-path="url(#O)"><g clip-path="url(#P)" opacity=".3"><path d="M104.5 418.36h2.5v-3h-3.4c-2.8 0-3.6 1.7-3.6 4.2v1.8h-2v3h2v9h3v-9h3.3l.6-3H103v-1.5c0-.8.3-1.5 1.5-1.5Z" fill="#000"/></g></g><g clip-path="url(#Q)"><g clip-path="url(#R)"><path d="M33.35 444.51c1.6-.5 2.77.3 3.41 1.1.53-.2 1.17-.4 1.81-.6a2 2 0 0 1-.85 1.6c.75.2 1.28-.4 1.28-.4-.1.9-.96 1.69-1.5 1.89-.2 6.27-2.98 10.35-9.49 10.25h-.42c-.32 0-3.95-.4-4.59-1.79 2.13.2 3.63-.4 4.37-1.1-.85-.3-2.56-.4-2.77-2.78.32.2.53.3 1.17.2-1.17-.8-2.45-1.5-2.34-3.49.32.3.96.5 1.28.4-.64-.2-1.92-3.09-.86-4.58 1.71 1.7 3.52 3.39 6.72 3.48.22-2.09 1.07-3.48 2.78-4.18Z" fill="#000"/></g></g><g clip-path="url(#S)"><g clip-path="url(#T)" opacity=".6"><path d="M68.35 444.51c1.6-.5 2.77.3 3.41 1.1.53-.2 1.17-.4 1.81-.6a2 2 0 0 1-.85 1.6c.75.2 1.28-.4 1.28-.4-.1.9-.96 1.69-1.5 1.89-.2 6.27-2.98 10.35-9.49 10.25h-.42c-.32 0-3.95-.4-4.59-1.79 2.13.2 3.63-.4 4.37-1.1-.85-.3-2.56-.4-2.77-2.78.32.2.53.3 1.17.2-1.17-.8-2.45-1.5-2.34-3.49.32.3.96.5 1.28.4-.64-.2-1.92-3.09-.86-4.58 1.71 1.7 3.52 3.39 6.72 3.48.22-2.09 1.07-3.48 2.78-4.18Z" fill="#000"/></g></g><g clip-path="url(#U)"><g clip-path="url(#V)" opacity=".3"><path d="M106.35 444.51c1.6-.5 2.77.3 3.41 1.1.53-.2 1.17-.4 1.81-.6a2 2 0 0 1-.85 1.6c.75.2 1.28-.4 1.28-.4-.1.9-.96 1.69-1.5 1.89-.2 6.27-2.98 10.35-9.49 10.25h-.42c-.32 0-3.95-.4-4.59-1.79 2.13.2 3.63-.4 4.37-1.1-.85-.3-2.56-.4-2.77-2.78.32.2.53.3 1.17.2-1.17-.8-2.45-1.5-2.34-3.49.32.3.96.5 1.28.4-.64-.2-1.92-3.09-.86-4.58 1.71 1.7 3.52 3.39 6.72 3.48.22-2.09 1.07-3.48 2.78-4.18Z" fill="#000"/></g></g><rect x=".5" y=".86" width="137" height="473" rx="4.5" stroke="#7B61FF" stroke-dasharray="10 5"/><defs><clipPath id="a"><path fill="#fff" transform="translate(20 19.36)" d="M0 0h15v12H0z"/></clipPath><clipPath id="b"><path fill="#fff" transform="translate(25 50.36)" d="M0 0h4v12H0z"/></clipPath><clipPath id="c"><path fill="#fff" transform="translate(20 81.36)" d="M0 0h15v12H0z"/></clipPath><clipPath id="d"><path fill="#fff" transform="translate(19 112.36)" d="M0 0h16v16H0z"/></clipPath><clipPath id="e"><path fill="#fff" transform="translate(19 182.36)" d="M0 0h16v16H0z"/></clipPath><clipPath id="f"><path fill="#fff" transform="translate(19 217.36)" d="M0 0h16v14H0z"/></clipPath><clipPath id="g"><path fill="#fff" transform="translate(22 250.36)" d="M0 0h10v12H0z"/></clipPath><clipPath id="h"><path fill="#fff" transform="translate(22 281.36)" d="M0 0h11v11H0z"/></clipPath><clipPath id="i"><path fill="#fff" transform="translate(22 338.36)" d="M0 0h11v10H0z"/></clipPath><clipPath id="j"><path fill="#fff" transform="translate(58 19.36)" d="M0 0h15v12H0z"/></clipPath><clipPath id="k"><path fill="#fff" transform="translate(96 19.36)" d="M0 0h15v12H0z"/></clipPath><clipPath id="l"><path fill="#fff" transform="translate(63 50.36)" d="M0 0h4v12H0z"/></clipPath><clipPath id="m"><path fill="#fff" transform="translate(101 50.36)" d="M0 0h4v12H0z"/></clipPath><clipPath id="n"><path fill="#fff" transform="translate(58 81.36)" d="M0 0h15v12H0z"/></clipPath><clipPath id="o"><path fill="#fff" transform="translate(96 81.36)" d="M0 0h15v12H0z"/></clipPath><clipPath id="p"><path fill="#fff" transform="translate(57 112.36)" d="M0 0h16v16H0z"/></clipPath><clipPath id="q"><path fill="#fff" transform="translate(95 112.36)" d="M0 0h16v16H0z"/></clipPath><clipPath id="r"><path fill="#fff" transform="translate(57 182.36)" d="M0 0h16v16H0z"/></clipPath><clipPath id="s"><path fill="#fff" transform="translate(95 182.36)" d="M0 0h16v16H0z"/></clipPath><clipPath id="t"><path fill="#fff" transform="translate(57 217.36)" d="M0 0h16v14H0z"/></clipPath><clipPath id="u"><path fill="#fff" transform="translate(95 217.36)" d="M0 0h16v14H0z"/></clipPath><clipPath id="v"><path fill="#fff" transform="translate(60 250.36)" d="M0 0h10v12H0z"/></clipPath><clipPath id="w"><path fill="#fff" transform="translate(98 250.36)" d="M0 0h10v12H0z"/></clipPath><clipPath id="x"><path fill="#fff" transform="translate(60 281.36)" d="M0 0h11v11H0z"/></clipPath><clipPath id="y"><path fill="#fff" transform="translate(98 281.36)" d="M0 0h11v11H0z"/></clipPath><clipPath id="z"><path fill="#fff" transform="translate(60 338.36)" d="M0 0h11v10H0z"/></clipPath><clipPath id="A"><path fill="#fff" transform="translate(98 338.36)" d="M0 0h11v10H0z"/></clipPath><clipPath id="B"><path fill="#fff" transform="rotate(-180 16.5 186.18)" d="M0 0h11v10H0z"/></clipPath><clipPath id="C"><path fill="#fff" transform="rotate(-180 35.5 186.18)" d="M0 0h11v10H0z"/></clipPath><clipPath id="D"><path fill="#fff" transform="rotate(-180 54.5 186.18)" d="M0 0h11v10H0z"/></clipPath><clipPath id="E"><path fill="#fff" transform="rotate(-180 19 203.68)" d="M0 0h16v16H0z"/></clipPath><clipPath id="F"><path fill="#fff" transform="translate(22 391.36)" d="M0 0h16v16H0z"/></clipPath><clipPath id="G"><path fill="#fff" transform="rotate(-180 38 203.68)" d="M0 0h16v16H0z"/></clipPath><clipPath id="H"><path fill="#fff" transform="translate(60 391.36)" d="M0 0h16v16H0z"/></clipPath><clipPath id="I"><path fill="#fff" transform="rotate(-180 57 203.68)" d="M0 0h16v16H0z"/></clipPath><clipPath id="J"><path fill="#fff" transform="translate(98 391.36)" d="M0 0h16v16H0z"/></clipPath><clipPath id="K"><path fill="#fff" transform="rotate(-180 17 216.68)" d="M0 0h9v18H0z"/></clipPath><clipPath id="L"><path fill="#fff" transform="translate(25 415.36)" d="M0 0h9v18H0z"/></clipPath><clipPath id="M"><path fill="#fff" transform="rotate(-180 34.5 216.68)" d="M0 0h9v18H0z"/></clipPath><clipPath id="N"><path fill="#fff" transform="translate(60 415.36)" d="M0 0h9v18H0z"/></clipPath><clipPath id="O"><path fill="#fff" transform="rotate(-180 53.5 216.68)" d="M0 0h9v18H0z"/></clipPath><clipPath id="P"><path fill="#fff" transform="translate(98 415.36)" d="M0 0h9v18H0z"/></clipPath><clipPath id="Q"><path fill="#fff" transform="rotate(-180 19.5 229.18)" d="M0 0h16v14H0z"/></clipPath><clipPath id="R"><path fill="#fff" transform="translate(23 444.36)" d="M0 0h16v14H0z"/></clipPath><clipPath id="S"><path fill="#fff" transform="rotate(-180 37 229.18)" d="M0 0h16v14H0z"/></clipPath><clipPath id="T"><path fill="#fff" transform="translate(58 444.36)" d="M0 0h16v14H0z"/></clipPath><clipPath id="U"><path fill="#fff" transform="rotate(-180 56 229.18)" d="M0 0h16v14H0z"/></clipPath><clipPath id="V"><path fill="#fff" transform="translate(96 444.36)" d="M0 0h16v14H0z"/></clipPath></defs></svg>