<svg width="16" height="17" fill="none" xmlns="http://www.w3.org/2000/svg"><g clip-path="url(#a)"><g clip-path="url(#b)" fill="#000" opacity=".6"><path d="M8 10.36a2 2 0 1 0 0-4 2 2 0 0 0 0 4Z"/><path d="M14.7 1.66c-.9-.9-2-1.3-3.4-1.3H4.7C1.9.36 0 2.26 0 5.06v6.6c0 1.4.4 2.6 1.4 3.4.9.9 2 1.3 3.3 1.3h6.6c1.4 0 2.6-.4 3.4-1.3.8-.9 1.3-2 1.3-3.4v-6.6c0-1.4-.4-2.6-1.3-3.4ZM8 12.46c-2.2 0-4.1-1.8-4.1-4.1s1.9-4.1 4.1-4.1c2.2 0 4.1 1.8 4.1 4.1s-1.9 4.1-4.1 4.1Zm4.6-7.4c-.7 0-1.3-.5-1.3-1.3s.5-1.3 1.3-1.3c.7 0 1.3.6 1.3 1.3 0 .7-.6 1.3-1.3 1.3Z"/></g></g><defs><clipPath id="a"><path fill="#fff" transform="rotate(-180 8 8.18)" d="M0 0h16v16H0z"/></clipPath><clipPath id="b"><path fill="#fff" transform="translate(0 .36)" d="M0 0h16v16H0z"/></clipPath></defs></svg>