<svg width="15" height="13" viewBox="0 0 15 13" fill="none" xmlns="http://www.w3.org/2000/svg">
<g opacity="0.3" clip-path="url(#clip0_11521_3340)">
<path d="M7.6 8.35693C7.2 8.35693 7 8.25693 6.6 8.05693L0 4.35693V11.3569C0 11.9569 0.4 12.3569 0.9 12.3569H14.1C14.7 12.3569 15 11.9569 15 11.3569V4.35693L8.5 8.05693C8.1 8.25693 7.9 8.35693 7.6 8.35693ZM14.1 0.356934H0.9C0.4 0.356934 0 0.856934 0 1.35693V2.15693L7.5 6.35693L15 2.15693V1.35693C15 0.856934 14.6 0.356934 14.1 0.356934Z" fill="black"/>
</g>
<defs>
<clipPath id="clip0_11521_3340">
<rect width="15" height="12" fill="white" transform="translate(0 0.356934)"/>
</clipPath>
</defs>
</svg>
