<svg width="16" height="15" fill="none" xmlns="http://www.w3.org/2000/svg"><g clip-path="url(#a)"><g clip-path="url(#b)" opacity=".6"><path d="M10.35.51c1.6-.5 2.77.3 3.41 1.1.53-.2 1.17-.4 1.81-.6a2 2 0 0 1-.85 1.6c.75.2 1.28-.4 1.28-.4-.1.9-.96 1.69-1.5 1.89-.2 6.27-2.98 10.35-9.49 10.26H4.6c-.32 0-3.95-.4-4.59-1.8 2.13.2 3.63-.4 4.37-1.1-.85-.3-2.56-.4-2.77-2.78.32.2.53.3 1.17.2C1.6 8.08.32 7.38.43 5.39c.32.3.96.5 1.28.4-.64-.2-1.92-3.09-.86-4.58 1.71 1.7 3.52 3.38 6.72 3.48C7.8 2.6 8.64 1.21 10.35.51Z" fill="#000"/></g></g><defs><clipPath id="a"><path fill="#fff" transform="rotate(-180 8 7.18)" d="M0 0h16v14H0z"/></clipPath><clipPath id="b"><path fill="#fff" transform="translate(0 .36)" d="M0 0h16v14H0z"/></clipPath></defs></svg>